<?xml version="1.0" encoding="utf-8"?>
<!-- Generator: Adobe Illustrator 16.0.0, SVG Export Plug-In . SVG Version: 6.00 Build 0)  -->
<!DOCTYPE svg PUBLIC "-//W3C//DTD SVG 1.1//EN" "http://www.w3.org/Graphics/SVG/1.1/DTD/svg11.dtd">
<svg version="1.1" id="Layer_1" focusable="false" xmlns="http://www.w3.org/2000/svg" xmlns:xlink="http://www.w3.org/1999/xlink"
	 x="0px" y="0px" width="500px" height="900px" viewBox="0 0 500 900" enable-background="new 0 0 500 900" xml:space="preserve">
<path fill="#FFFFFF" d="M458.333,255.556H41.667C18.663,255.556,0,274.219,0,297.222v305.555c0,23.004,18.663,41.667,41.667,41.667
	h416.667c23.004,0,41.667-18.663,41.667-41.667V297.222C500,274.219,481.337,255.556,458.333,255.556z M152.778,338.889
	c30.642,0,55.556,24.914,55.556,55.556c0,30.643-24.914,55.556-55.556,55.556c-30.643,0-55.556-24.913-55.556-55.556
	C97.222,363.802,122.135,338.889,152.778,338.889z M250,544.444c0,9.201-8.681,16.667-19.444,16.667H75
	c-10.764,0-19.444-7.466-19.444-16.667v-16.667c0-27.604,26.128-50,58.333-50h4.34c10.677,4.428,22.309,6.945,34.549,6.945
	s23.958-2.518,34.548-6.945h4.34c32.205,0,58.333,22.396,58.333,50V544.444z M444.444,498.611c0,3.819-3.125,6.944-6.944,6.944h-125
	c-3.819,0-6.944-3.125-6.944-6.944v-13.889c0-3.82,3.125-6.945,6.944-6.945h125c3.819,0,6.944,3.125,6.944,6.945V498.611z
	 M444.444,443.056c0,3.819-3.125,6.944-6.944,6.944h-125c-3.819,0-6.944-3.125-6.944-6.944v-13.889c0-3.819,3.125-6.944,6.944-6.944
	h125c3.819,0,6.944,3.125,6.944,6.944V443.056z M444.444,387.5c0,3.819-3.125,6.944-6.944,6.944h-125
	c-3.819,0-6.944-3.125-6.944-6.944v-13.889c0-3.82,3.125-6.945,6.944-6.945h125c3.819,0,6.944,3.125,6.944,6.945V387.5z"/>
</svg>
