<?xml version="1.0" encoding="utf-8"?>
<!-- Generator: Adobe Illustrator 16.0.0, SVG Export Plug-In . SVG Version: 6.00 Build 0)  -->
<!DOCTYPE svg PUBLIC "-//W3C//DTD SVG 1.1//EN" "http://www.w3.org/Graphics/SVG/1.1/DTD/svg11.dtd">
<svg version="1.1" id="Layer_1" xmlns="http://www.w3.org/2000/svg" xmlns:xlink="http://www.w3.org/1999/xlink" x="0px" y="0px"
	 width="232.189px" height="69.619px" viewBox="0 0 232.189 69.619" enable-background="new 0 0 232.189 69.619"
	 xml:space="preserve">
<g>
	<path fill="#FFFFFF" d="M47.804,34.337c0-5.699,4.78-8.457,4.964-8.641c-2.758-3.861-6.802-4.413-8.273-4.596
		c-3.492-0.367-6.986,2.022-8.64,2.022c-1.837,0-4.595-2.022-7.538-2.022c-3.86,0-7.354,2.207-9.375,5.699
		c-4.044,6.985-1.104,17.281,2.757,22.98c2.022,2.759,4.229,5.883,7.17,5.7c2.941-0.185,4.045-1.838,7.538-1.838
		s4.412,1.838,7.538,1.838c3.125,0,5.146-2.759,6.985-5.514c2.207-3.126,3.125-6.25,3.125-6.435
		C53.871,43.346,47.804,41.139,47.804,34.337z"/>
	<path fill="#FFFFFF" d="M42.105,17.424c1.47-2.022,2.574-4.596,2.389-7.354c-2.205,0.184-5.147,1.47-6.618,3.493
		c-1.471,1.655-2.758,4.412-2.39,6.985C37.877,20.733,40.451,19.262,42.105,17.424z"/>
	<path fill="#FFFFFF" d="M89.72,46.64h-4.043l-2.206-6.986h-7.722l-2.022,6.986h-3.86l7.722-23.716h4.78L89.72,46.64z
		 M82.734,36.713l-2.022-6.251c-0.184-0.55-0.551-2.205-1.287-4.412l0,0c-0.184,0.92-0.552,2.575-1.102,4.412L76.3,36.713H82.734z"
		/>
	<path fill="#FFFFFF" d="M109.392,38c0,2.942-0.736,5.148-2.391,6.985c-1.47,1.471-3.126,2.206-5.331,2.206
		c-2.206,0-3.862-0.735-4.78-2.391l0,0v9.008h-3.861V35.425c0-1.839,0-3.676-0.185-5.699h3.31l0.184,2.758l0,0
		c1.287-2.022,3.125-3.125,5.699-3.125c2.022,0,3.677,0.736,4.964,2.391C108.655,33.22,109.392,35.242,109.392,38z M105.531,38
		c0-1.654-0.369-3.125-1.104-4.045c-0.734-1.104-1.838-1.655-3.309-1.655c-0.92,0-1.838,0.369-2.575,0.921
		c-0.735,0.55-1.287,1.47-1.47,2.39c-0.185,0.551-0.185,0.919-0.185,1.103v2.941c0,1.289,0.368,2.207,1.103,3.126
		c0.735,0.92,1.838,1.287,2.941,1.287c1.472,0,2.574-0.551,3.309-1.654C105.162,41.309,105.531,39.838,105.531,38z"/>
	<path fill="#FFFFFF" d="M129.062,38c0,2.942-0.733,5.148-2.389,6.985c-1.472,1.471-3.126,2.206-5.331,2.206
		c-2.207,0-3.86-0.735-4.781-2.391l0,0v9.008h-3.859V35.425c0-1.839,0-3.676-0.185-5.699h3.31l0.185,2.758l0,0
		c1.286-2.022,3.124-3.125,5.7-3.125c2.021,0,3.675,0.736,4.962,2.391C128.328,33.22,129.062,35.242,129.062,38z M125.201,38
		c0-1.654-0.366-3.125-1.104-4.045c-0.732-1.104-1.836-1.655-3.307-1.655c-0.921,0-1.84,0.369-2.574,0.921
		c-0.734,0.55-1.288,1.47-1.471,2.39c-0.185,0.551-0.185,0.919-0.185,1.103v2.941c0,1.289,0.367,2.207,1.104,3.126
		s1.838,1.287,2.941,1.287c1.471,0,2.574-0.551,3.311-1.654C124.835,41.309,125.201,39.838,125.201,38z"/>
	<path fill="#FFFFFF" d="M151.124,40.022c0,2.022-0.735,3.676-2.023,4.962c-1.469,1.472-3.676,2.023-6.434,2.023
		c-2.574,0-4.597-0.551-6.066-1.47l0.92-3.125c1.655,0.919,3.491,1.47,5.516,1.47c1.471,0,2.573-0.367,3.309-0.919
		c0.733-0.736,1.103-1.471,1.103-2.574c0-0.92-0.369-1.839-0.921-2.39c-0.733-0.735-1.837-1.288-3.308-1.839
		c-4.229-1.471-6.25-3.86-6.25-6.801c0-2.022,0.734-3.494,2.205-4.78c1.471-1.288,3.309-1.838,5.882-1.838
		c2.207,0,3.86,0.367,5.333,1.103l-0.92,3.125c-1.289-0.735-2.758-1.104-4.598-1.104c-1.286,0-2.389,0.368-3.125,0.92
		c-0.55,0.552-0.919,1.288-0.919,2.206c0,0.919,0.367,1.654,1.104,2.39c0.55,0.551,1.838,1.104,3.493,1.838
		c2.022,0.734,3.492,1.838,4.596,2.941C150.571,37.081,151.124,38.367,151.124,40.022z"/>
	<path fill="#FFFFFF" d="M163.624,32.484h-4.229v8.273c0,2.022,0.736,3.125,2.206,3.125c0.735,0,1.286,0,1.653-0.185l0.185,2.942
		c-0.733,0.368-1.654,0.368-2.94,0.368c-1.471,0-2.757-0.368-3.493-1.288c-0.92-0.92-1.286-2.39-1.286-4.596v-8.64h-2.573v-2.941
		h2.573v-3.126l3.676-1.104v4.23h4.229V32.484L163.624,32.484z"/>
	<path fill="#FFFFFF" d="M182.561,38c0,2.574-0.735,4.781-2.205,6.435c-1.655,1.654-3.678,2.573-6.252,2.573
		c-2.571,0-4.594-0.919-6.067-2.573c-1.471-1.654-2.204-3.677-2.204-6.251c0-2.574,0.736-4.779,2.389-6.434
		c1.474-1.654,3.678-2.574,6.252-2.574s4.597,0.92,6.067,2.574C181.824,33.404,182.561,35.426,182.561,38z M178.516,38.184
		c0-1.655-0.368-2.942-1.104-4.045c-0.734-1.287-2.022-2.023-3.493-2.023c-1.469,0-2.756,0.736-3.493,2.023
		c-0.734,1.104-1.101,2.574-1.101,4.045c0,1.654,0.364,2.94,1.101,4.045c0.737,1.287,2.024,2.021,3.493,2.021
		c1.471,0,2.574-0.734,3.493-2.021C178.147,41.125,178.516,39.654,178.516,38.184z"/>
	<path fill="#FFFFFF" d="M194.877,32.852c-0.367,0-0.734-0.183-1.286-0.183c-1.288,0-2.392,0.551-3.126,1.47
		c-0.55,0.919-0.919,2.022-0.919,3.31v9.008h-3.861V34.69c0-2.021,0-3.676-0.183-5.331h3.308l0.186,3.309h0.183
		c0.368-1.104,1.104-2.022,1.837-2.758c0.921-0.551,1.84-0.92,2.759-0.92c0.366,0,0.736,0,0.921,0v3.861H194.877L194.877,32.852z"/>
	<path fill="#FFFFFF" d="M211.792,37.265c0,0.735,0,1.287-0.185,1.654h-11.399c0,1.655,0.554,2.942,1.656,3.861
		c0.919,0.734,2.206,1.287,3.677,1.287c1.653,0,3.309-0.184,4.596-0.735l0.55,2.574c-1.652,0.735-3.492,1.104-5.698,1.104
		c-2.573,0-4.78-0.734-6.251-2.391c-1.471-1.471-2.205-3.676-2.205-6.25s0.734-4.78,2.022-6.435
		c1.471-1.837,3.493-2.757,6.066-2.757c2.39,0,4.413,0.92,5.516,2.757C211.423,33.404,211.792,35.242,211.792,37.265z
		 M208.299,36.346c0-1.104-0.185-2.023-0.733-2.942c-0.737-1.104-1.655-1.655-2.944-1.655c-1.288,0-2.204,0.551-2.941,1.471
		c-0.552,0.734-0.918,1.837-1.103,2.94h7.722V36.346L208.299,36.346z"/>
</g>
</svg>
