<?xml version="1.0" encoding="utf-8"?>
<!-- Generator: Adobe Illustrator 16.0.0, SVG Export Plug-In . SVG Version: 6.00 Build 0)  -->
<!DOCTYPE svg PUBLIC "-//W3C//DTD SVG 1.1//EN" "http://www.w3.org/Graphics/SVG/1.1/DTD/svg11.dtd">
<svg version="1.1" id="Layer_1" xmlns="http://www.w3.org/2000/svg" xmlns:xlink="http://www.w3.org/1999/xlink" x="0px" y="0px"
	 width="713px" height="257px" viewBox="0 0 713 257" enable-background="new 0 0 713 257" xml:space="preserve">
<path fill="#FFFFFF" d="M346.305,108.252c-14.417,0-26.161,11.375-26.161,27.051c0,15.577,11.744,27.058,26.161,27.058
	c14.415,0,26.165-11.479,26.165-27.058C372.47,119.627,360.72,108.252,346.305,108.252z M346.305,151.701
	c-7.893,0-14.71-6.764-14.71-16.398c0-9.734,6.816-16.393,14.71-16.393c7.9,0,14.709,6.662,14.709,16.393
	C361.014,144.938,354.205,151.701,346.305,151.701z M289.229,108.252c-14.415,0-26.163,11.375-26.163,27.051
	c0,15.577,11.748,27.058,26.163,27.058c14.417,0,26.166-11.479,26.166-27.058C315.394,119.627,303.646,108.252,289.229,108.252z
	 M289.229,151.701c-7.898,0-14.708-6.764-14.708-16.398c0-9.734,6.811-16.393,14.708-16.393c7.896,0,14.708,6.662,14.708,16.393
	C303.938,144.938,297.127,151.701,289.229,151.701z M221.331,116.557v11.472h26.462c-0.79,6.45-2.862,11.167-6.022,14.443
	c-3.854,3.996-9.877,8.404-20.44,8.404c-16.289,0-29.024-13.626-29.024-30.536c0-16.904,12.735-30.53,29.024-30.53
	c8.789,0,15.205,3.583,19.946,8.194l7.8-8.097c-6.614-6.563-15.402-11.579-27.746-11.579c-22.314,0-41.075,18.856-41.075,42.012
	c0,23.16,18.76,42.019,41.075,42.019c12.045,0,21.131-4.103,28.235-11.79c7.31-7.576,9.581-18.236,9.581-26.848
	c0-2.656-0.197-5.116-0.593-7.169L221.331,116.557L221.331,116.557z M499.004,125.464c-2.175-6.034-8.792-17.21-22.311-17.21
	c-13.432,0-24.585,10.961-24.585,27.05c0,15.17,11.055,27.063,25.869,27.063c11.946,0,18.852-7.585,21.721-11.991l-8.886-6.148
	c-2.961,4.509-7.01,7.478-12.839,7.478c-5.82,0-9.972-2.767-12.636-8.196l34.854-14.959L499.004,125.464z M463.459,134.482
	c-0.296-10.447,7.807-15.773,13.626-15.773c4.542,0,8.39,2.359,9.675,5.74L463.459,134.482z M435.123,160.719h11.456V81.202h-11.456
	V160.719z M416.359,114.294h-0.393c-2.567-3.174-7.501-6.041-13.723-6.041c-13.033,0-24.979,11.889-24.979,27.157
	c0,15.159,11.945,26.95,24.979,26.95c6.217,0,11.157-2.873,13.723-6.151h0.393v3.885c0,10.353-5.331,15.893-13.916,15.893
	c-7.008,0-11.349-5.232-13.129-9.637l-9.972,4.304c2.863,7.167,10.463,15.989,23.101,15.989c13.431,0,24.786-8.196,24.786-28.186
	v-48.568h-10.864v4.405H416.359L416.359,114.294z M403.23,151.701c-7.899,0-14.513-6.871-14.513-16.293
	c0-9.535,6.611-16.502,14.513-16.502c7.798,0,13.919,6.971,13.919,16.502C417.15,144.83,411.028,151.701,403.23,151.701z
	 M552.646,81.202h-27.396v79.517h11.432v-30.123h15.97c12.679,0,25.138-9.531,25.138-24.697
	C577.788,90.734,565.329,81.202,552.646,81.202z M552.947,119.525h-16.263V92.273h16.263c8.552,0,13.404,7.335,13.404,13.623
	C566.349,112.059,561.496,119.525,552.947,119.525z M623.618,108.107c-8.278,0-16.852,3.784-20.404,12.17l10.15,4.401
	c2.163-4.401,6.219-5.837,10.45-5.837c5.912,0,11.927,3.689,12.02,10.23v0.82c-2.068-1.229-6.503-3.065-11.928-3.065
	c-10.938,0-22.075,6.237-22.075,17.906c0,10.63,8.971,17.488,19.021,17.488c7.686,0,11.932-3.574,14.585-7.777h0.396v6.138h11.043
	v-30.484C646.886,115.984,636.725,108.107,623.618,108.107z M622.235,151.687c-3.736,0-8.962-1.947-8.962-6.758
	c0-6.134,6.502-8.486,12.123-8.486c5.023,0,7.396,1.12,10.445,2.663C634.956,146.471,628.84,151.687,622.235,151.687z
	 M687.096,109.848l-13.107,34.476h-0.396l-13.6-34.476h-12.319l20.404,48.177l-11.637,26.806h11.926l31.446-74.983H687.096z
	 M584.095,160.719h11.43V81.202h-11.43V160.719z"/>
<g>
	
		<linearGradient id="SVGID_1_" gradientUnits="userSpaceOnUse" x1="286.2876" y1="382.126" x2="179.5574" y2="488.856" gradientTransform="matrix(1 0 0 1 -206 -326)">
		<stop  offset="0" style="stop-color:#00A0FF"/>
		<stop  offset="0.0066" style="stop-color:#00A1FF"/>
		<stop  offset="0.2601" style="stop-color:#00BEFF"/>
		<stop  offset="0.5122" style="stop-color:#00D2FF"/>
		<stop  offset="0.7604" style="stop-color:#00DFFF"/>
		<stop  offset="1" style="stop-color:#00E3FF"/>
	</linearGradient>
	<path fill="url(#SVGID_1_)" d="M8.026,48.664c-1.784,1.96-2.838,4.997-2.838,8.937v140.67c0,3.941,1.054,6.98,2.838,8.936
		l0.451,0.457l75.928-78.796v-0.93v-0.929L8.477,48.209L8.026,48.664z"/>
	
		<linearGradient id="SVGID_2_" gradientUnits="userSpaceOnUse" x1="357.4229" y1="453.9385" x2="209.1376" y2="453.9386" gradientTransform="matrix(1 0 0 1 -206 -326)">
		<stop  offset="0" style="stop-color:#FFE000"/>
		<stop  offset="0.4087" style="stop-color:#FFBD00"/>
		<stop  offset="0.7754" style="stop-color:#FFA500"/>
		<stop  offset="1" style="stop-color:#FF9C00"/>
	</linearGradient>
	<path fill="url(#SVGID_2_)" d="M109.71,155.137l-25.306-26.275v-0.93v-0.928l25.312-26.265l0.571,0.335l29.984,17.676
		c8.565,5.054,8.565,13.318,0,18.375l-29.984,17.676L109.71,155.137z"/>
	
		<linearGradient id="SVGID_3_" gradientUnits="userSpaceOnUse" x1="302.4502" y1="468.2627" x2="160.3276" y2="610.3854" gradientTransform="matrix(1 0 0 1 -206 -326)">
		<stop  offset="0" style="stop-color:#FF3A44"/>
		<stop  offset="1" style="stop-color:#C31162"/>
	</linearGradient>
	<path fill="url(#SVGID_3_)" d="M110.288,154.802l-25.884-26.87l-76.378,79.27c2.821,3.105,7.483,3.489,12.736,0.396
		L110.288,154.802"/>
	
		<linearGradient id="SVGID_4_" gradientUnits="userSpaceOnUse" x1="192.9785" y1="330.1309" x2="256.443" y2="393.5953" gradientTransform="matrix(1 0 0 1 -206 -326)">
		<stop  offset="0" style="stop-color:#32A071"/>
		<stop  offset="0.0685" style="stop-color:#2DA771"/>
		<stop  offset="0.4762" style="stop-color:#15CF74"/>
		<stop  offset="0.8009" style="stop-color:#06E775"/>
		<stop  offset="1" style="stop-color:#00F076"/>
	</linearGradient>
	<path fill="url(#SVGID_4_)" d="M110.288,101.066L20.763,48.279c-5.253-3.102-9.917-2.717-12.736,0.383l76.378,79.269
		L110.288,101.066z"/>
	<g>
		<path opacity="0.2" enable-background="new    " d="M109.716,154.205L20.76,206.662c-4.977,2.937-9.427,2.732-12.282,0.07l0,0
			l-0.456,0.476l0,0l0.452,0.458l0.003-0.006c2.855,2.671,7.305,2.87,12.282-0.063l89.526-52.796L109.716,154.205z"/>
		<path opacity="0.12" enable-background="new    " d="M8.026,206.281c-1.784-1.964-2.838-4.998-2.838-8.938v0.924
			c0,3.938,1.054,6.979,2.838,8.938l0.455-0.476L8.026,206.281z"/>
	</g>
	<path opacity="0.12" enable-background="new    " d="M140.272,136.193l-30.556,18.012l0.571,0.6l29.985-17.688
		c4.281-2.528,6.425-5.854,6.425-9.179l0,0C146.335,130.947,144.156,133.894,140.272,136.193z"/>
	<path opacity="0.25" fill="#FFFFFF" enable-background="new    " d="M20.76,49.21l119.512,70.476
		c3.883,2.285,6.063,5.237,6.425,8.246l0,0c0.001-3.323-2.141-6.656-6.425-9.18L20.76,48.281
		c-8.568-5.052-15.572-0.863-15.572,9.328v0.923C5.187,48.354,12.195,44.157,20.76,49.21z"/>
</g>
</svg>
