<?xml version="1.0" encoding="utf-8"?>
<!-- Generator: Adobe Illustrator 16.0.0, SVG Export Plug-In . SVG Version: 6.00 Build 0)  -->
<!DOCTYPE svg PUBLIC "-//W3C//DTD SVG 1.1//EN" "http://www.w3.org/Graphics/SVG/1.1/DTD/svg11.dtd">
<svg version="1.1" id="Layer_1" focusable="false" xmlns="http://www.w3.org/2000/svg" xmlns:xlink="http://www.w3.org/1999/xlink"
	 x="0px" y="0px" width="500px" height="900px" viewBox="0 0 500 900" enable-background="new 0 0 500 900" xml:space="preserve">
<path fill="#FFFFFF" d="M142.857,329.464v-44.643c0-7.366,6.027-13.393,13.393-13.393h44.643c7.366,0,13.393,6.026,13.393,13.393
	v44.643c0,7.366-6.027,13.393-13.393,13.393H156.25C148.884,342.857,142.857,336.831,142.857,329.464z M299.107,342.857h44.643
	c7.366,0,13.393-6.026,13.393-13.393v-44.643c0-7.366-6.026-13.393-13.393-13.393h-44.643c-7.366,0-13.393,6.026-13.393,13.393
	v44.643C285.715,336.831,291.741,342.857,299.107,342.857z M156.25,450h44.643c7.366,0,13.393-6.026,13.393-13.393v-44.643
	c0-7.366-6.027-13.393-13.393-13.393H156.25c-7.366,0-13.393,6.027-13.393,13.393v44.643C142.857,443.974,148.884,450,156.25,450z
	 M299.107,450h44.643c7.366,0,13.393-6.026,13.393-13.393v-44.643c0-7.366-6.026-13.393-13.393-13.393h-44.643
	c-7.366,0-13.393,6.027-13.393,13.393v44.643C285.715,443.974,291.741,450,299.107,450z M214.286,543.75v-44.643
	c0-7.366-6.027-13.394-13.393-13.394H156.25c-7.366,0-13.393,6.027-13.393,13.394v44.643c0,7.366,6.027,13.393,13.393,13.393h44.643
	C208.259,557.143,214.286,551.116,214.286,543.75z M299.107,557.143h44.643c7.366,0,13.393-6.026,13.393-13.393v-44.643
	c0-7.366-6.026-13.394-13.393-13.394h-44.643c-7.366,0-13.393,6.027-13.393,13.394v44.643
	C285.715,551.116,291.741,557.143,299.107,557.143z M500,695.536v40.178H0v-40.178c0-7.366,6.027-13.394,13.393-13.394h21.763
	V191.071c0-14.844,11.942-26.786,26.786-26.786h376.116c14.844,0,26.786,11.942,26.786,26.786v491.071h21.764
	C493.974,682.143,500,688.17,500,695.536z M88.728,681.026h125.558V606.25c0-7.366,6.027-13.393,13.393-13.393h44.643
	c7.366,0,13.394,6.026,13.394,13.393v74.776h125.558V218.973l-321.987-1.116L88.728,681.026z"/>
</svg>
