<?xml version="1.0" encoding="utf-8"?>
<!-- Generator: Adobe Illustrator 16.0.0, SVG Export Plug-In . SVG Version: 6.00 Build 0)  -->
<!DOCTYPE svg PUBLIC "-//W3C//DTD SVG 1.1//EN" "http://www.w3.org/Graphics/SVG/1.1/DTD/svg11.dtd">
<svg version="1.1" id="Layer_1" xmlns="http://www.w3.org/2000/svg" xmlns:xlink="http://www.w3.org/1999/xlink" x="0px" y="0px"
	 width="512px" height="512px" viewBox="0 0 512 512" enable-background="new 0 0 512 512" xml:space="preserve">
<linearGradient id="SVGID_1_" gradientUnits="userSpaceOnUse" x1="256.1265" y1="243.1245" x2="218.7556" y2="280.4953" gradientTransform="matrix(4 0 0 -4 -675.5 1286.5)">
	<stop  offset="0" style="stop-color:#E30058"/>
	<stop  offset="0" style="stop-color:#8300A9"/>
	<stop  offset="1" style="stop-color:#6A99FF"/>
</linearGradient>
<path fill="url(#SVGID_1_)" d="M178.001,280.996c-8.991,21.121,0.843,45.531,21.964,54.521c21.122,8.992,45.532-0.842,54.522-21.963
	c6.5-15.271,3.293-32.945-8.159-44.959c-2.632-2.832-2.47-7.261,0.362-9.893c2.776-2.58,7.102-2.482,9.758,0.221
	c21.212,22.203,20.41,57.396-1.792,78.609c-22.203,21.213-57.397,20.41-78.61-1.791c-21.213-22.203-20.411-57.398,1.792-78.61
	c5.119-4.89,11.124-8.759,17.694-11.396c3.629-1.331,7.651,0.532,8.982,4.162c1.276,3.48-0.382,7.352-3.782,8.83
	C190.486,262.816,182.3,270.835,178.001,280.996L178.001,280.996z M226.97,257.128c3.732,1.009,7.575-1.2,8.584-4.933
	c1.008-3.731-1.2-7.574-4.932-8.583l0,0c-1.28-0.344-2.572-0.64-3.876-0.896c-3.812-0.659-7.436,1.897-8.095,5.709
	c-0.641,3.708,1.763,7.259,5.442,8.043C225.062,256.652,226.021,256.868,226.97,257.128z M287.27,335.088
	c-3.242-2.104-7.574-1.18-9.676,2.063c-0.002,0.002-0.002,0.004-0.004,0.006c-5.836,9.035-13.613,16.656-22.769,22.303
	c-2.89,1.795-4.071,5.406-2.8,8.561l5.561,13.832l-12.621,5.068l-5.56-13.828c-1.271-3.156-4.628-4.943-7.956-4.232
	c-10.518,2.264-21.408,2.148-31.876-0.336c-3.314-0.791-6.714,0.93-8.04,4.068l-5.848,13.715l-12.496-5.33l5.848-13.713
	c1.333-3.131,0.223-6.768-2.632-8.619c-9.04-5.834-16.661-13.615-22.308-22.773c-1.8-2.883-5.408-4.063-8.564-2.799l-13.828,5.563
	L126.633,326l13.828-5.557c3.158-1.271,4.943-4.631,4.232-7.959c-2.261-10.518-2.146-21.406,0.336-31.873
	c0.78-3.313-0.937-6.705-4.068-8.039l-13.708-5.832l8.072-18.937c1.517-3.557-0.138-7.669-3.694-9.186s-7.669,0.137-9.186,3.694l0,0
	l-10.8,25.372c-1.524,3.551,0.119,7.664,3.669,9.189c0.009,0.004,0.018,0.006,0.027,0.01l14.916,6.365
	c-1.449,8.719-1.542,17.611-0.276,26.359l-15.064,6.033c-3.586,1.443-5.325,5.52-3.884,9.107l10.292,25.6
	c1.442,3.586,5.517,5.324,9.104,3.885l15.044-6.053c5.147,7.188,11.374,13.537,18.46,18.824l-6.364,14.92
	c-1.525,3.551,0.117,7.664,3.667,9.189c0.008,0.004,0.017,0.006,0.025,0.01l25.376,10.801c3.547,1.525,7.66-0.113,9.186-3.66
	c0.004-0.01,0.009-0.021,0.014-0.031l6.36-14.92c8.718,1.449,17.608,1.545,26.356,0.279l6.052,15.043
	c1.445,3.584,5.519,5.32,9.104,3.881l25.601-10.287c3.584-1.445,5.322-5.518,3.883-9.105l-6.061-15.043
	c8.807-6.305,16.342-14.211,22.217-23.309C291.449,341.523,290.518,337.188,287.27,335.088L287.27,335.088z M321.465,269.863
	l-10.287-25.599c-1.445-3.585-5.52-5.324-9.107-3.888l-15.045,6.052c-5.143-7.188-11.365-13.54-18.447-18.828l6.359-14.92
	c1.523-3.553-0.121-7.669-3.674-9.192c-0.006-0.003-0.012-0.005-0.018-0.008l-25.376-10.8c-3.553-1.524-7.669,0.121-9.192,3.674
	c-0.002,0.006-0.005,0.012-0.008,0.018l-6.336,14.924c-8.719-1.458-17.611-1.554-26.36-0.284l-6.04-15.036
	c-1.444-3.586-5.52-5.326-9.108-3.888L163.213,202.4c-3.586,1.443-5.325,5.52-3.882,9.106c0,0.002,0.001,0.004,0.002,0.005
	l6.048,15.036c-8.804,6.305-16.341,14.212-22.216,23.308c-2.104,3.244-1.18,7.58,2.064,9.685s7.58,1.181,9.684-2.063
	c5.833-9.037,13.61-16.658,22.764-22.305c2.891-1.796,4.072-5.411,2.8-8.568l-5.548-13.844l12.604-5.072l5.56,13.824
	c1.265,3.162,4.626,4.951,7.956,4.236c10.519-2.253,21.407-2.139,31.876,0.336c3.313,0.782,6.708-0.936,8.04-4.068l5.848-13.712
	l12.496,5.332l-5.848,13.708c-1.334,3.133-0.224,6.771,2.632,8.624c9.04,5.833,16.661,13.612,22.309,22.769
	c1.795,2.891,5.408,4.072,8.563,2.8L300.797,256l5.068,12.604l-13.828,5.561c-3.156,1.271-4.943,4.631-4.23,7.959
	c2.262,10.518,2.146,21.408-0.336,31.877c-0.773,3.307,0.941,6.689,4.063,8.023l13.717,5.848l-8.072,18.928
	c-1.461,3.58,0.254,7.666,3.834,9.129c3.5,1.43,7.504-0.18,9.043-3.637l10.799-25.375c1.525-3.551-0.117-7.664-3.666-9.189
	c-0.01-0.004-0.018-0.008-0.025-0.012l-14.92-6.359c1.451-8.721,1.545-17.613,0.279-26.363l15.045-6.045
	C321.145,277.51,322.889,273.449,321.465,269.863L321.465,269.863z M379.018,172.864c-3.387-1.852-7.633-0.608-9.484,2.778
	c-0.004,0.007-0.008,0.015-0.012,0.022c-0.301,0.556-0.633,1.092-0.98,1.6c-2.078,3.26-1.121,7.587,2.139,9.666
	c3.154,2.011,7.332,1.188,9.486-1.87c0.592-0.88,1.139-1.78,1.652-2.716C383.656,178.952,382.404,174.712,379.018,172.864
	L379.018,172.864z M384.361,155.752c-5.705-17.89-24.834-27.766-42.725-22.06c-17.889,5.706-27.766,24.834-22.059,42.724
	c4.494,14.095,17.59,23.665,32.383,23.668c3.867,0,7-3.134,7-7s-3.133-7-7-7c-11.045-0.006-19.994-8.966-19.988-20.012
	c0.008-11.046,8.967-19.995,20.012-19.988c8.699,0.005,16.395,5.631,19.041,13.916c1.258,3.655,5.242,5.599,8.898,4.34
	C383.459,163.123,385.414,159.341,384.361,155.752z M426.078,148.952h-10.477c-1.473-5.512-3.666-10.805-6.52-15.744l7.404-7.408
	c2.732-2.73,2.736-7.16,0.006-9.894c-0.002-0.002-0.004-0.004-0.006-0.006l-14.336-14.34c-2.734-2.731-7.164-2.731-9.896,0
	l-7.412,7.408c-4.938-2.858-10.232-5.052-15.744-6.524V91.972c0.002-3.864-3.129-6.998-6.992-7c-0.002,0-0.006,0-0.008,0h-20.271
	c-3.865-0.002-6.998,3.128-7,6.992c0,0.003,0,0.005,0,0.008v10.472c-5.512,1.473-10.803,3.667-15.74,6.524l-7.412-7.408
	c-2.734-2.732-7.166-2.732-9.9,0l-14.336,14.336c-2.732,2.735-2.732,7.166,0,9.9l7.408,7.404c-2.854,4.94-5.043,10.235-6.512,15.748
	H277.85c-3.865,0-7,3.134-7,7v20.272c0,3.866,3.135,7,7,7h10.484c1.475,5.512,3.668,10.806,6.523,15.744l-7.408,7.408
	c-2.729,2.735-2.729,7.165,0,9.9l14.336,14.332c2.734,2.732,7.166,2.732,9.9,0l11.385-11.384c2.779-2.686,2.855-7.118,0.17-9.898
	c-2.688-2.78-7.117-2.856-9.898-0.17c-0.059,0.057-0.115,0.114-0.172,0.173l-6.436,6.432l-4.441-4.432l6.441-6.436
	c2.404-2.407,2.73-6.193,0.775-8.976c-4.404-6.231-7.363-13.368-8.656-20.888c-0.582-3.363-3.506-5.815-6.92-5.804h-9.084v-6.272
	h9.084c3.406,0.003,6.32-2.447,6.9-5.804c1.293-7.52,4.248-14.657,8.652-20.888c1.965-2.777,1.646-6.564-0.752-8.976l-6.438-6.436
	l4.438-4.444l6.432,6.432c2.4,2.412,6.186,2.749,8.975,0.8c6.232-4.406,13.369-7.363,20.889-8.656
	c3.355-0.582,5.807-3.495,5.805-6.9v-9.104h6.271v9.092c0,3.406,2.451,6.318,5.809,6.9c7.514,1.288,14.646,4.238,20.875,8.636
	c2.783,1.96,6.572,1.633,8.977-0.776l6.436-6.424l4.436,4.436l-6.432,6.444c-2.408,2.405-2.736,6.194-0.775,8.976
	c4.404,6.231,7.361,13.368,8.656,20.888c0.58,3.355,3.49,5.805,6.896,5.804h9.096v6.271h-9.096c-3.404,0.001-6.314,2.45-6.896,5.804
	c-1.295,7.521-4.254,14.657-8.66,20.888c-1.951,2.789-1.613,6.576,0.799,8.976l6.434,6.436l-4.438,4.432l-6.436-6.432
	c-2.408-2.405-6.195-2.732-8.98-0.776c-6.234,4.407-13.377,7.363-20.902,8.652c-3.354,0.586-5.801,3.496-5.805,6.9v9.1h-13.271
	c-3.867,0-7,3.134-7,7c0,3.866,3.133,7,7,7h20.271c3.863,0.002,6.998-3.128,7-6.992c0-0.003,0-0.005,0-0.008v-10.476
	c5.514-1.471,10.809-3.665,15.748-6.524l7.408,7.408c2.732,2.731,7.162,2.731,9.896,0l14.336-14.332
	c2.732-2.73,2.736-7.16,0.006-9.894c-0.002-0.002-0.004-0.004-0.006-0.006l-7.404-7.408c2.854-4.939,5.045-10.233,6.52-15.744
	h10.477c3.865,0,7-3.134,7-7v-20.276c0-3.866-3.135-7-7-7V148.952z"/>
</svg>
