<?xml version="1.0" encoding="utf-8"?>
<!-- Generator: Adobe Illustrator 16.0.0, SVG Export Plug-In . SVG Version: 6.00 Build 0)  -->
<!DOCTYPE svg PUBLIC "-//W3C//DTD SVG 1.1//EN" "http://www.w3.org/Graphics/SVG/1.1/DTD/svg11.dtd">
<svg version="1.1" id="Layer_1" xmlns="http://www.w3.org/2000/svg" xmlns:xlink="http://www.w3.org/1999/xlink" x="0px" y="0px"
	 width="836.091px" height="595px" viewBox="0 0 836.091 595" enable-background="new 0 0 836.091 595" xml:space="preserve">
<g>
	<linearGradient id="SVGID_1_" gradientUnits="userSpaceOnUse" x1="53.2271" y1="181.7998" x2="353.042" y2="181.7998">
		<stop  offset="0" style="stop-color:#0072D4"/>
		<stop  offset="0.0104" style="stop-color:#0B7AD7"/>
		<stop  offset="0.0531" style="stop-color:#3597E3"/>
		<stop  offset="0.0967" style="stop-color:#57AFED"/>
		<stop  offset="0.1409" style="stop-color:#72C1F5"/>
		<stop  offset="0.1858" style="stop-color:#85CFFB"/>
		<stop  offset="0.2318" style="stop-color:#90D6FE"/>
		<stop  offset="0.2809" style="stop-color:#94D9FF"/>
		<stop  offset="0.6685" style="stop-color:#3FC6FF"/>
		<stop  offset="0.8876" style="stop-color:#BFECFF"/>
		<stop  offset="1" style="stop-color:#BFECFF"/>
	</linearGradient>
	<path fill="none" stroke="url(#SVGID_1_)" stroke-width="3" stroke-miterlimit="10" d="M130.637,310.832c-1.1,0-2.45-0.779-3-1.732
		L55.139,183.533c-0.55-0.953-0.55-2.512,0-3.465L127.637,54.5c0.55-0.953,1.9-1.732,3-1.732h144.994c1.1,0,2.45,0.779,3,1.732
		l72.498,125.569c0.55,0.953,0.55,2.512,0,3.465L278.631,309.1c-0.55,0.953-1.9,1.732-3,1.732H130.637z"/>
</g>
<g opacity="0.3">
	<linearGradient id="SVGID_2_" gradientUnits="userSpaceOnUse" x1="278.0381" y1="310.832" x2="577.853" y2="310.832">
		<stop  offset="0" style="stop-color:#0072D4"/>
		<stop  offset="0.0104" style="stop-color:#0B7AD7"/>
		<stop  offset="0.0531" style="stop-color:#3597E3"/>
		<stop  offset="0.0967" style="stop-color:#57AFED"/>
		<stop  offset="0.1409" style="stop-color:#72C1F5"/>
		<stop  offset="0.1858" style="stop-color:#85CFFB"/>
		<stop  offset="0.2318" style="stop-color:#90D6FE"/>
		<stop  offset="0.2809" style="stop-color:#94D9FF"/>
		<stop  offset="0.6685" style="stop-color:#3FC6FF"/>
		<stop  offset="0.8876" style="stop-color:#BFECFF"/>
		<stop  offset="1" style="stop-color:#BFECFF"/>
	</linearGradient>
	<path fill="none" stroke="url(#SVGID_2_)" stroke-width="3" stroke-miterlimit="10" d="M355.448,439.864c-1.1,0-2.45-0.779-3-1.732
		L279.95,312.565c-0.55-0.953-0.55-2.512,0-3.465l72.498-125.568c0.55-0.953,1.9-1.732,3-1.732h144.994c1.1,0,2.45,0.779,3,1.732
		l72.498,125.568c0.55,0.953,0.55,2.512,0,3.465l-72.498,125.566c-0.55,0.953-1.9,1.732-3,1.732H355.448z"/>
</g>
<g opacity="0.5">
	<linearGradient id="SVGID_3_" gradientUnits="userSpaceOnUse" x1="501.2285" y1="181.7998" x2="801.043" y2="181.7998">
		<stop  offset="0" style="stop-color:#0072D4"/>
		<stop  offset="0.0104" style="stop-color:#0B7AD7"/>
		<stop  offset="0.0531" style="stop-color:#3597E3"/>
		<stop  offset="0.0967" style="stop-color:#57AFED"/>
		<stop  offset="0.1409" style="stop-color:#72C1F5"/>
		<stop  offset="0.1858" style="stop-color:#85CFFB"/>
		<stop  offset="0.2318" style="stop-color:#90D6FE"/>
		<stop  offset="0.2809" style="stop-color:#94D9FF"/>
		<stop  offset="0.6685" style="stop-color:#3FC6FF"/>
		<stop  offset="0.8876" style="stop-color:#BFECFF"/>
		<stop  offset="1" style="stop-color:#BFECFF"/>
	</linearGradient>
	<path fill="none" stroke="url(#SVGID_3_)" stroke-width="3" stroke-miterlimit="10" d="M578.639,310.832c-1.1,0-2.45-0.779-3-1.732
		l-72.498-125.566c-0.55-0.953-0.55-2.512,0-3.465L575.639,54.5c0.55-0.953,1.9-1.732,3-1.732h144.994c1.1,0,2.45,0.779,3,1.732
		l72.498,125.569c0.55,0.953,0.55,2.512,0,3.465L726.633,309.1c-0.55,0.953-1.9,1.732-3,1.732H578.639z"/>
</g>
<g>
	<linearGradient id="SVGID_4_" gradientUnits="userSpaceOnUse" x1="501.2285" y1="439.8643" x2="801.043" y2="439.8643">
		<stop  offset="0" style="stop-color:#0072D4"/>
		<stop  offset="0.0104" style="stop-color:#0B7AD7"/>
		<stop  offset="0.0531" style="stop-color:#3597E3"/>
		<stop  offset="0.0967" style="stop-color:#57AFED"/>
		<stop  offset="0.1409" style="stop-color:#72C1F5"/>
		<stop  offset="0.1858" style="stop-color:#85CFFB"/>
		<stop  offset="0.2318" style="stop-color:#90D6FE"/>
		<stop  offset="0.2809" style="stop-color:#94D9FF"/>
		<stop  offset="0.6685" style="stop-color:#3FC6FF"/>
		<stop  offset="0.8876" style="stop-color:#BFECFF"/>
		<stop  offset="1" style="stop-color:#BFECFF"/>
	</linearGradient>
	<path fill="none" stroke="url(#SVGID_4_)" stroke-width="3" stroke-miterlimit="10" d="M578.639,568.896c-1.1,0-2.45-0.779-3-1.732
		l-72.498-125.566c-0.55-0.953-0.55-2.512,0-3.465l72.498-125.568c0.55-0.953,1.9-1.732,3-1.732h144.994c1.1,0,2.45,0.779,3,1.732
		l72.498,125.568c0.55,0.953,0.55,2.512,0,3.465l-72.498,125.566c-0.55,0.953-1.9,1.732-3,1.732H578.639z"/>
</g>
</svg>
