<?xml version="1.0" encoding="utf-8"?>
<!-- Generator: Adobe Illustrator 16.0.0, SVG Export Plug-In . SVG Version: 6.00 Build 0)  -->
<!DOCTYPE svg PUBLIC "-//W3C//DTD SVG 1.1//EN" "http://www.w3.org/Graphics/SVG/1.1/DTD/svg11.dtd">
<svg version="1.1" id="Layer_1" focusable="false" xmlns="http://www.w3.org/2000/svg" xmlns:xlink="http://www.w3.org/1999/xlink"
	 x="0px" y="0px" width="500px" height="900px" viewBox="0 0 500 900" enable-background="new 0 0 500 900" xml:space="preserve">
<path fill="#FFFFFF" d="M492.188,449.542c0.247,133.438-108.574,242.551-242.012,242.645
	c-57.632,0.041-110.569-20.049-152.17-53.624c-10.817-8.73-11.626-24.942-1.796-34.772l11.003-11.003
	c8.407-8.407,21.829-9.327,31.144-1.938c30.649,24.321,69.438,38.838,111.644,38.838c99.321,0,179.688-80.382,179.688-179.688
	c0-99.321-80.382-179.688-179.688-179.688c-47.67,0-90.966,18.524-123.113,48.762l49.564,49.564
	c9.844,9.844,2.872,26.674-11.048,26.674H23.438c-8.63,0-15.625-6.995-15.625-15.625V237.722c0-13.92,16.83-20.892,26.674-11.049
	l48.215,48.215c43.479-41.552,102.408-67.075,167.299-67.075C383.604,207.813,491.94,315.996,492.188,449.542z M315.516,526.479
	l9.593-12.334c7.947-10.218,6.106-24.943-4.111-32.89l-39.747-30.915V348.438c0-12.944-10.493-23.438-23.438-23.438h-15.625
	c-12.944,0-23.438,10.493-23.438,23.438v132.472l63.876,49.682C292.844,538.537,307.568,536.697,315.516,526.479z"/>
</svg>
