<?xml version="1.0" encoding="utf-8"?>
<!-- Generator: Adobe Illustrator 16.0.0, SVG Export Plug-In . SVG Version: 6.00 Build 0)  -->
<!DOCTYPE svg PUBLIC "-//W3C//DTD SVG 1.1//EN" "http://www.w3.org/Graphics/SVG/1.1/DTD/svg11.dtd">
<svg version="1.1" id="Layer_1" focusable="false" xmlns="http://www.w3.org/2000/svg" xmlns:xlink="http://www.w3.org/1999/xlink"
	 x="0px" y="0px" width="500px" height="900px" viewBox="0 0 500 900" enable-background="new 0 0 500 900" xml:space="preserve">
<path fill="#FFFFFF" d="M243.377,356.476L83.333,488.29v142.266c0,7.671,6.218,13.889,13.889,13.889l97.274-0.252
	c7.644-0.038,13.819-6.245,13.819-13.889v-83.081c0-7.671,6.218-13.89,13.889-13.89h55.555c7.672,0,13.89,6.219,13.89,13.89v83.021
	c-0.024,7.671,6.175,13.908,13.845,13.932c0.016,0.001,0.029,0.001,0.044,0.001l97.239,0.269c7.671,0,13.89-6.218,13.89-13.889
	V488.194L256.658,356.476C252.782,353.352,247.252,353.352,243.377,356.476L243.377,356.476z M496.181,446.067l-72.569-59.817
	V266.016c0-5.753-4.664-10.417-10.417-10.417h-48.611c-5.753,0-10.416,4.664-10.416,10.417v63.029l-77.718-63.941
	c-15.381-12.657-37.57-12.657-52.951,0L3.768,446.067c-4.435,3.665-5.058,10.231-1.393,14.666c0.001,0.001,0.002,0.003,0.004,0.005
	l22.135,26.909c3.654,4.443,10.219,5.083,14.662,1.429c0.006-0.004,0.011-0.009,0.017-0.014l204.184-168.177
	c3.875-3.124,9.405-3.124,13.281,0l204.192,168.177c4.433,3.668,10.999,3.048,14.666-1.384c0.002-0.002,0.003-0.004,0.004-0.005
	l22.136-26.91c3.653-4.444,3.012-11.009-1.434-14.661C496.209,446.091,496.194,446.079,496.181,446.067L496.181,446.067z"/>
</svg>
