<?xml version="1.0" encoding="utf-8"?>
<!-- Generator: Adobe Illustrator 16.0.0, SVG Export Plug-In . SVG Version: 6.00 Build 0)  -->
<!DOCTYPE svg PUBLIC "-//W3C//DTD SVG 1.1//EN" "http://www.w3.org/Graphics/SVG/1.1/DTD/svg11.dtd">
<svg version="1.1" id="Layer_1" xmlns="http://www.w3.org/2000/svg" xmlns:xlink="http://www.w3.org/1999/xlink" x="0px" y="0px"
	 width="250px" height="201.592px" viewBox="0 0 250 201.592" enable-background="new 0 0 250 201.592" xml:space="preserve">
<g>
	<path fill="#025F80" d="M192.191,94.652c0,40.281-32.655,72.931-72.934,72.931c-40.281,0-72.93-32.649-72.93-72.931
		c0-40.277,32.649-72.933,72.93-72.933C159.536,21.719,192.191,54.375,192.191,94.652z"/>
	<path fill="#3691BB" d="M168.902,143.716h-51.277c-1.575,0-2.853-1.276-2.853-2.848V112.38c0-1.577,1.278-2.85,2.853-2.85h51.277
		c1.575,0,2.851,1.273,2.851,2.85v28.488C171.753,142.44,170.477,143.716,168.902,143.716z"/>
	<path fill="#0ED1B2" d="M95.491,51.576c-1.962,0.245-3.432,1.903-3.439,3.879c-0.007,1.934,1.39,3.583,3.3,3.894l1.653,0.266
		c0.241,1.424,0.6,2.807,1.074,4.134l-1.255,0.955c-1.578,1.189-2.023,3.367-1.044,5.082c0.965,1.676,3.003,2.406,4.807,1.719
		l1.572-0.6c0.906,1.099,1.912,2.114,3,3.04l-0.62,1.461c-0.765,1.817-0.061,3.923,1.638,4.919c1.671,0.969,3.801,0.589,5.021-0.916
		l1.058-1.295c1.32,0.493,2.697,0.874,4.122,1.132l0.195,1.57c0.25,1.957,1.902,3.432,3.88,3.437
		c1.933,0.009,3.584-1.388,3.896-3.302l0.26-1.653c1.429-0.236,2.812-0.595,4.138-1.078l0.956,1.261
		c1.192,1.576,3.364,2.021,5.077,1.042c1.679-0.962,2.409-3,1.724-4.806l-0.601-1.567c1.1-0.911,2.117-1.914,3.037-3.002l1.462,0.62
		c1.82,0.77,3.93,0.064,4.918-1.643c0.972-1.67,0.583-3.798-0.913-5.021l-1.298-1.055c0.496-1.319,0.877-2.697,1.131-4.121
		l1.57-0.196c1.967-0.242,3.434-1.905,3.445-3.879c0.003-1.934-1.398-3.583-3.3-3.889l-1.662-0.268
		c-0.236-1.43-0.598-2.809-1.073-4.135l1.261-0.957c1.574-1.192,2.019-3.365,1.04-5.078c-0.958-1.679-2.998-2.405-4.81-1.716
		l-1.567,0.594c-0.906-1.097-1.905-2.115-2.999-3.035l0.616-1.463c0.767-1.819,0.067-3.928-1.638-4.919
		c-1.668-0.974-3.801-0.583-5.025,0.911l-1.052,1.299c-1.321-0.492-2.698-0.875-4.121-1.132l-0.198-1.569
		c-0.246-1.96-1.905-3.434-3.881-3.438c-1.929-0.009-3.579,1.391-3.886,3.299l-0.271,1.658c-1.423,0.235-2.806,0.599-4.131,1.074
		l-0.958-1.261c-1.19-1.573-3.368-2.02-5.081-1.036c-1.675,0.957-2.405,2.994-1.716,4.805l0.598,1.569
		c-1.102,0.904-2.114,1.914-3.036,2.998l-1.462-0.618c-1.82-0.77-3.928-0.067-4.921,1.641c-0.972,1.668-0.589,3.801,0.913,5.021
		l1.297,1.057c-0.492,1.319-0.874,2.699-1.13,4.122L95.491,51.576z M120.686,46.664c4.967,0.019,8.973,4.058,8.953,9.023
		c-0.017,4.967-4.059,8.971-9.024,8.954c-4.963-0.018-8.974-4.056-8.956-9.024C111.68,50.655,115.721,46.646,120.686,46.664z"/>
	<path fill="#0AB59E" d="M103.925,55.591c-0.036,9.238,7.419,16.752,16.666,16.788c9.236,0.036,16.751-7.421,16.789-16.664
		c0.033-9.238-7.429-16.753-16.664-16.786C111.476,38.888,103.958,46.353,103.925,55.591z M120.697,44.188
		c6.326,0.028,11.441,5.179,11.42,11.509c-0.027,6.329-5.181,11.442-11.509,11.42c-6.332-0.029-11.443-5.176-11.419-11.506
		C109.217,49.278,114.363,44.167,120.697,44.188z"/>
	<path fill="#01988C" d="M123.194,72.187c-0.852,0.129-1.718,0.199-2.604,0.192c-9.247-0.036-16.702-7.549-16.666-16.788
		c0.034-9.239,7.551-16.698,16.791-16.662c0.842,0,1.67,0.068,2.473,0.19c-8.006,1.22-14.156,8.119-14.185,16.472
		C108.971,63.988,115.128,70.961,123.194,72.187z"/>
	<path fill="#F18BC3" d="M173.46,110.528h-56.979c-1.575,0-2.849-1.281-2.849-2.853V64.943c0-1.571,1.274-2.847,2.849-2.847h56.979
		c1.575,0,2.845,1.276,2.845,2.847v42.731C176.306,109.247,175.035,110.528,173.46,110.528z"/>
	<path fill="#F5A6D1" d="M176.306,64.943v42.731c0,1.572-1.271,2.853-2.845,2.853H145.07l-6.471,11.418
		c-0.639,1.129-1.831,1.827-3.137,1.827c-1.983,0-3.597-1.61-3.597-3.601v-9.644h-9.685c-1.572,0-2.851-1.281-2.851-2.853V64.943
		c0-1.571,1.278-2.847,2.851-2.847h51.28C175.035,62.097,176.306,63.373,176.306,64.943z"/>
	<path fill="#EC74B6" d="M168.829,74.486v3.135c0,0.317-0.254,0.567-0.57,0.567h-30.675c-0.312,0-0.568-0.25-0.568-0.567v-3.135
		c0-0.311,0.257-0.567,0.568-0.567h30.675C168.574,73.918,168.829,74.175,168.829,74.486z M168.259,91.012h-34.471
		c-0.316,0-0.574,0.253-0.574,0.568v3.134c0,0.313,0.258,0.569,0.574,0.569h34.471c0.315,0,0.57-0.256,0.57-0.569V91.58
		C168.829,91.265,168.574,91.012,168.259,91.012z M168.259,99.558h-24.976c-0.315,0-0.57,0.256-0.57,0.569v3.134
		c0,0.317,0.255,0.57,0.57,0.57h24.976c0.315,0,0.57-0.253,0.57-0.57v-3.134C168.829,99.813,168.574,99.558,168.259,99.558z
		 M168.259,82.463h-41.593c-0.313,0-0.571,0.257-0.571,0.57v3.132c0,0.316,0.258,0.572,0.571,0.572h41.593
		c0.315,0,0.57-0.255,0.57-0.572v-3.132C168.829,82.72,168.574,82.463,168.259,82.463z"/>
	<path fill="#FC6930" d="M130.727,146.564H59.503c-1.568,0-2.847-1.277-2.847-2.848v-39.885c0-1.575,1.279-2.848,2.847-2.848h71.224
		c1.575,0,2.852,1.273,2.852,2.848v39.885C133.579,145.288,132.302,146.564,130.727,146.564z"/>
	<path fill="#FD7D43" d="M133.579,103.831v50.526c0,1.994-1.613,3.602-3.604,3.602c-1.294,0-2.495-0.697-3.132-1.823l-5.417-9.572
		H65.418c-1.567,0-2.847-1.277-2.847-2.848v-39.885c0-1.575,1.28-2.848,2.847-2.848h65.309
		C132.302,100.983,133.579,102.26,133.579,103.831z"/>
	<path fill="#FC5426" d="M129.017,118.646v3.132c0,0.315-0.254,0.573-0.57,0.573h-18.802c-0.316,0-0.571-0.258-0.571-0.573v-3.132
		c0-0.318,0.255-0.571,0.571-0.571h18.802C128.763,118.075,129.017,118.332,129.017,118.646z M128.447,126.623H98.179
		c-0.319,0-0.573,0.254-0.573,0.571v3.13c0,0.313,0.253,0.569,0.573,0.569h30.269c0.315,0,0.57-0.255,0.57-0.569v-3.13
		C129.017,126.877,128.763,126.623,128.447,126.623z M128.447,135.167h-24.142c-0.311,0-0.567,0.254-0.567,0.57v3.137
		c0,0.316,0.256,0.566,0.567,0.566h24.142c0.315,0,0.57-0.25,0.57-0.566v-3.137C129.017,135.425,128.763,135.167,128.447,135.167z"
		/>
	<path fill="#FDED32" d="M97.073,114.965c-4.567,4.063-7.107,9.94-7.107,16.058v0.416H70.509v-0.491
		c0-6.17-2.693-11.986-7.271-16.125c-5.161-4.659-8.393-11.411-8.363-18.923c0.052-13.987,11.377-25.26,25.363-25.26
		c14.001,0.003,25.357,11.357,25.357,25.363C105.6,103.549,102.302,110.321,97.073,114.965z"/>
	<path fill="#FDF385" d="M89.965,131.023v0.416H77.109v-0.491c0-6.17-2.69-11.986-7.269-16.125
		c-5.167-4.661-8.394-11.411-8.366-18.923c0.052-12.864,9.64-23.434,22.056-25.043c12.452,1.615,22.07,12.257,22.07,25.147
		c0,7.546-3.298,14.318-8.527,18.962C92.505,119.029,89.965,124.906,89.965,131.023z"/>
	<path fill="#FDF7BD" d="M86.083,76.724c0.941-1.238,6.94,0.691,10.649,4.863c3.186,3.572,4.662,8.763,3.48,9.612
		c-1.46,1.039-6.96-4.513-8.105-5.677C91.411,84.822,84.917,78.254,86.083,76.724z"/>
	<path fill="#E8CE00" d="M86.646,93.859h-12.82c-3.928,0-7.12,3.196-7.12,7.124c0,3.14,2.555,5.699,5.695,5.699
		c0.786,0,1.425,0.636,1.425,1.424v18.518c0,3.142,2.558,5.696,5.696,5.696h1.425c3.139,0,5.699-2.554,5.699-5.696v-18.518
		c0-0.788,0.639-1.424,1.425-1.424c3.145,0,5.696-2.559,5.696-5.699C93.767,97.055,90.572,93.859,86.646,93.859z M88.07,102.406
		c-3.143,0-5.695,2.554-5.695,5.7v18.518c0,0.789-0.645,1.425-1.429,1.425h-1.425c-0.786,0-1.423-0.636-1.423-1.425v-18.518
		c0-3.146-2.556-5.7-5.698-5.7c-0.783,0-1.422-0.638-1.422-1.423c0-1.572,1.277-2.851,2.847-2.851h12.82
		c1.57,0,2.848,1.278,2.848,2.851C89.493,101.768,88.851,102.406,88.07,102.406z"/>
	<path fill="#88B9D3" d="M93.265,129.703c0,1.555-1.025,2.872-2.434,3.316v0.159c0,4.797-3.889,8.685-8.686,8.685h-3.819
		c-4.798,0-8.69-3.888-8.69-8.685v-0.159c-1.411-0.444-2.43-1.761-2.43-3.316c0-1.917,1.553-3.473,3.474-3.473h19.107
		C91.707,126.23,93.265,127.786,93.265,129.703z"/>
	<g>
		<path fill="#B3D1E1" d="M93.265,129.703c0,1.555-1.025,2.872-2.434,3.316v0.159c0,4.169-2.941,7.652-6.863,8.491
			c-2.614-0.555-4.788-2.291-5.954-4.62c-0.289-0.581,0.126-1.267,0.774-1.267h7.789c0.731,0,1.323-0.603,1.301-1.34
			c-0.02-0.716-0.647-1.265-1.358-1.265H75.716c-1.918,0-3.471-1.556-3.471-3.475c0-1.917,1.553-3.473,3.471-3.473h14.072
			C91.707,126.23,93.265,127.786,93.265,129.703z"/>
		<path fill="#B3D1E1" d="M158.221,132.319c0,1.181-0.959,2.137-2.139,2.137c-1.182,0-2.138-0.957-2.138-2.137
			c0-1.181,0.956-2.134,2.138-2.134C157.262,130.185,158.221,131.138,158.221,132.319z M163.204,130.185
			c-1.182,0-2.135,0.953-2.135,2.134c0,1.181,0.954,2.137,2.135,2.137c1.181,0,2.142-0.957,2.142-2.137
			C165.345,131.138,164.384,130.185,163.204,130.185z M170.326,130.185c-1.183,0-2.135,0.953-2.135,2.134
			c0,1.181,0.953,2.137,2.135,2.137c1.18,0,2.137-0.957,2.137-2.137C172.463,131.138,171.506,130.185,170.326,130.185z"/>
	</g>
</g>
</svg>
