<?xml version="1.0" encoding="utf-8"?>
<!-- Generator: Adobe Illustrator 16.0.0, SVG Export Plug-In . SVG Version: 6.00 Build 0)  -->
<!DOCTYPE svg PUBLIC "-//W3C//DTD SVG 1.1//EN" "http://www.w3.org/Graphics/SVG/1.1/DTD/svg11.dtd">
<svg version="1.1" id="Layer_1" focusable="false" xmlns="http://www.w3.org/2000/svg" xmlns:xlink="http://www.w3.org/1999/xlink"
	 x="0px" y="0px" width="500px" height="900px" viewBox="0 0 500 900" enable-background="new 0 0 500 900" xml:space="preserve">
<path fill="#FFFFFF" d="M46.875,246.875C20.987,246.875,0,267.862,0,293.75s20.987,46.875,46.875,46.875S93.75,319.638,93.75,293.75
	S72.763,246.875,46.875,246.875z M46.875,403.125C20.987,403.125,0,424.111,0,450s20.987,46.875,46.875,46.875
	S93.75,475.889,93.75,450S72.763,403.125,46.875,403.125z M46.875,559.375C20.987,559.375,0,580.361,0,606.25
	s20.987,46.875,46.875,46.875S93.75,632.139,93.75,606.25S72.763,559.375,46.875,559.375z M484.375,575h-312.5
	c-8.629,0-15.625,6.995-15.625,15.625v31.25c0,8.63,6.996,15.625,15.625,15.625h312.5c8.63,0,15.625-6.995,15.625-15.625v-31.25
	C500,581.995,493.005,575,484.375,575z M484.375,262.5h-312.5c-8.629,0-15.625,6.996-15.625,15.625v31.25
	c0,8.629,6.996,15.625,15.625,15.625h312.5c8.63,0,15.625-6.996,15.625-15.625v-31.25C500,269.496,493.005,262.5,484.375,262.5z
	 M484.375,418.75h-312.5c-8.629,0-15.625,6.995-15.625,15.625v31.25c0,8.63,6.996,15.625,15.625,15.625h312.5
	c8.63,0,15.625-6.995,15.625-15.625v-31.25C500,425.745,493.005,418.75,484.375,418.75z"/>
</svg>
