<?xml version="1.0" encoding="utf-8"?>
<!-- Generator: Adobe Illustrator 16.0.0, SVG Export Plug-In . SVG Version: 6.00 Build 0)  -->
<!DOCTYPE svg PUBLIC "-//W3C//DTD SVG 1.1//EN" "http://www.w3.org/Graphics/SVG/1.1/DTD/svg11.dtd">
<svg version="1.1" id="Layer_1" focusable="false" xmlns="http://www.w3.org/2000/svg" xmlns:xlink="http://www.w3.org/1999/xlink"
	 x="0px" y="0px" width="500px" height="900px" viewBox="0 0 500 900" enable-background="new 0 0 500 900" xml:space="preserve">
<path fill="#FFFFFF" d="M250,207.813C116.253,207.813,7.813,316.292,7.813,450c0,133.786,108.44,242.188,242.188,242.188
	S492.188,583.786,492.188,450C492.188,316.292,383.747,207.813,250,207.813z M250,645.313
	c-107.941,0-195.313-87.335-195.313-195.313c0-107.905,87.375-195.313,195.313-195.313c107.901,0,195.313,87.374,195.313,195.313
	C445.313,557.939,357.978,645.313,250,645.313z M354.73,396.094c0,65.48-70.724,66.488-70.724,90.687v6.188
	c0,6.472-5.247,11.719-11.719,11.719h-44.577c-6.472,0-11.719-5.247-11.719-11.719v-8.456c0-34.907,26.465-48.861,46.464-60.074
	c17.149-9.614,27.66-16.153,27.66-28.886c0-16.842-21.483-28.021-38.852-28.021c-22.646,0-33.1,10.72-47.795,29.267
	c-3.962,5-11.191,5.929-16.275,2.074l-27.172-20.604c-4.987-3.781-6.104-10.807-2.582-15.979
	c23.073-33.881,52.462-52.915,98.218-52.915C303.579,309.375,354.73,346.781,354.73,396.094z M291.016,559.375
	c0,22.616-18.399,41.016-41.016,41.016s-41.016-18.399-41.016-41.016s18.399-41.016,41.016-41.016S291.016,536.759,291.016,559.375z
	"/>
</svg>
