<?xml version="1.0" encoding="utf-8"?>
<!-- Generator: Adobe Illustrator 16.0.0, SVG Export Plug-In . SVG Version: 6.00 Build 0)  -->
<!DOCTYPE svg PUBLIC "-//W3C//DTD SVG 1.1//EN" "http://www.w3.org/Graphics/SVG/1.1/DTD/svg11.dtd">
<svg version="1.1" id="Layer_1" focusable="false" xmlns="http://www.w3.org/2000/svg" xmlns:xlink="http://www.w3.org/1999/xlink"
	 x="0px" y="0px" width="500px" height="900px" viewBox="0 0 500 900" enable-background="new 0 0 500 900" xml:space="preserve">
<path fill="#FFFFFF" d="M485.352,466.602L321.289,630.664c-14.648,14.648-40.039,4.395-40.039-16.602v-93.75H148.438
	c-12.988,0-23.438-10.449-23.438-23.438v-93.75c0-12.988,10.449-23.438,23.438-23.438H281.25v-93.75
	c0-20.898,25.293-31.25,40.039-16.602l164.063,164.063C494.434,442.578,494.434,457.422,485.352,466.602z M187.5,625.781v-39.063
	c0-6.445-5.273-11.719-11.719-11.719H93.75c-17.285,0-31.25-13.965-31.25-31.25v-187.5c0-17.285,13.965-31.25,31.25-31.25h82.031
	c6.445,0,11.719-5.273,11.719-11.719v-39.063c0-6.445-5.273-11.719-11.719-11.719H93.75C41.992,262.5,0,304.492,0,356.25v187.5
	c0,51.758,41.992,93.75,93.75,93.75h82.031C182.227,637.5,187.5,632.227,187.5,625.781z"/>
</svg>
