<?xml version="1.0" encoding="utf-8"?>
<!-- Generator: Adobe Illustrator 16.0.0, SVG Export Plug-In . SVG Version: 6.00 Build 0)  -->
<!DOCTYPE svg PUBLIC "-//W3C//DTD SVG 1.1//EN" "http://www.w3.org/Graphics/SVG/1.1/DTD/svg11.dtd">
<svg version="1.1" id="Layer_1" focusable="false" xmlns="http://www.w3.org/2000/svg" xmlns:xlink="http://www.w3.org/1999/xlink"
	 x="0px" y="0px" width="500px" height="900px" viewBox="0 0 500 900" enable-background="new 0 0 500 900" xml:space="preserve">
<path fill="#FFFFFF" d="M250,296.774c-53.427,0-96.774,43.347-96.774,96.774s43.347,96.774,96.774,96.774
	c53.428,0,96.774-43.347,96.774-96.774S303.428,296.774,250,296.774z M250,441.936c-26.714,0-48.387-21.674-48.387-48.387
	c0-26.714,21.673-48.387,48.387-48.387s48.387,21.673,48.387,48.387C298.387,420.262,276.714,441.936,250,441.936z M250,200
	C111.895,200,0,311.895,0,450c0,138.104,111.895,250,250,250c138.104,0,250-111.896,250-250C500,311.895,388.104,200,250,200z
	 M250,651.613c-50.101,0-95.867-18.448-131.149-48.791c15.021-23.186,40.726-38.911,70.162-39.818
	c20.968,6.452,40.927,9.678,60.988,9.678s40.02-3.125,60.988-9.678c29.436,1.008,55.141,16.633,70.161,39.818
	C345.867,633.165,300.101,651.613,250,651.613z M414.012,566.835c-24.597-31.653-62.601-52.319-105.947-52.319
	c-10.282,0-26.209,9.678-58.064,9.678c-31.754,0-47.782-9.678-58.064-9.678c-43.246,0-81.25,20.666-105.948,52.319
	C62.399,533.871,48.387,493.549,48.387,450c0-111.189,90.423-201.613,201.613-201.613S451.613,338.811,451.613,450
	C451.613,493.549,437.601,533.871,414.012,566.835z"/>
</svg>
